<svg width="180" height="14" viewBox="0 0 180 14" fill="none" xmlns="http://www.w3.org/2000/svg">
<path d="M6.89204 0.54546H9.66477L8.33523 8.60228C8.20644 9.35607 7.92045 10.0133 7.47727 10.5739C7.03409 11.1345 6.47348 11.5701 5.79545 11.8807C5.11742 12.1875 4.36553 12.3409 3.53977 12.3409C2.81629 12.3409 2.17803 12.214 1.625 11.9602C1.07197 11.7064 0.662877 11.3125 0.397726 10.7784C0.132574 10.2443 0.0700744 9.56061 0.210226 8.72728H3.00568C2.9678 9.03031 2.98106 9.28599 3.04545 9.49432C3.11364 9.70266 3.22917 9.85985 3.39204 9.96591C3.55871 10.072 3.77273 10.125 4.03409 10.125C4.30682 10.125 4.54545 10.0663 4.75 9.94887C4.95833 9.83144 5.13068 9.6572 5.26704 9.42614C5.4072 9.19508 5.50757 8.91288 5.56818 8.57955L6.89204 0.54546ZM12.0156 12.1818H8.9929L14.8509 0.54546H18.5952L20.5895 12.1818H17.5668L16.2884 3.47728H16.1974L12.0156 12.1818ZM12.3793 7.60228H18.6974L18.3338 9.73864H12.0156L12.3793 7.60228ZM33.6776 0.54546L31.7457 12.1818H29.3594L25.8537 5.46591H25.7741L24.6548 12.1818H21.8423L23.7741 0.54546H26.1946L29.6719 7.25001H29.7685L30.8707 0.54546H33.6776ZM33.5142 12.1818L35.446 0.54546H43.5597L43.1733 2.82955H37.8722L37.4858 5.21591H42.3722L41.9858 7.50569H37.0994L36.7131 9.89773H42.0142L41.6278 12.1818H33.5142ZM51.1903 12.1818H46.8267L48.7585 0.54546H52.9915C54.1733 0.54546 55.1581 0.78599 55.946 1.26705C56.7377 1.74432 57.2964 2.42993 57.6222 3.32387C57.9517 4.21402 58.0142 5.27463 57.8097 6.50569C57.6127 7.69508 57.2169 8.71402 56.6222 9.56251C56.0312 10.411 55.2737 11.0606 54.3494 11.5114C53.4252 11.9583 52.3722 12.1818 51.1903 12.1818ZM50.0312 9.7841H51.3665C52.018 9.7841 52.5937 9.66667 53.0937 9.43182C53.5975 9.19319 54.0142 8.81251 54.3437 8.28978C54.6733 7.76326 54.9081 7.07197 55.0483 6.21591C55.1847 5.39773 55.179 4.7519 55.0312 4.27841C54.8873 3.80114 54.607 3.46023 54.1903 3.25569C53.7775 3.04735 53.2377 2.94319 52.571 2.94319H51.1733L50.0312 9.7841ZM70.4347 6.54546C70.2225 7.79925 69.8059 8.85796 69.1847 9.7216C68.5672 10.5814 67.8153 11.233 66.929 11.6761C66.0464 12.1193 65.0975 12.3409 64.0824 12.3409C63.0104 12.3409 62.0824 12.1023 61.2983 11.625C60.5142 11.1477 59.9441 10.4527 59.5881 9.53978C59.2358 8.6269 59.1676 7.51894 59.3835 6.21591C59.5881 4.96213 59.9991 3.90152 60.6165 3.0341C61.2377 2.16667 61.9934 1.50947 62.8835 1.0625C63.7775 0.611747 64.7358 0.386369 65.7585 0.386369C66.8229 0.386369 67.7453 0.626899 68.5256 1.10796C69.3097 1.58902 69.8778 2.28788 70.2301 3.20455C70.5824 4.12122 70.6506 5.23485 70.4347 6.54546ZM67.6222 6.21591C67.7396 5.48485 67.7396 4.86932 67.6222 4.36932C67.5085 3.86932 67.285 3.49243 66.9517 3.23864C66.6184 2.98107 66.1847 2.85228 65.6506 2.85228C65.0597 2.85228 64.5256 2.99811 64.0483 3.28978C63.5748 3.57766 63.179 3.99811 62.8608 4.55114C62.5426 5.10038 62.321 5.76516 62.196 6.54546C62.0672 7.2841 62.0634 7.89963 62.1847 8.39205C62.3097 8.88448 62.5426 9.25569 62.8835 9.50569C63.2244 9.7519 63.6581 9.87501 64.1847 9.87501C64.7718 9.87501 65.3002 9.73296 65.7699 9.44887C66.2396 9.16478 66.6316 8.75001 66.946 8.20455C67.2642 7.6591 67.4896 6.99622 67.6222 6.21591ZM71.1392 12.1818L73.071 0.54546H81.1847L80.7983 2.82955H75.4972L75.1108 5.21591H79.9972L79.6108 7.50569H74.7244L74.3381 9.89773H79.6392L79.2528 12.1818H71.1392ZM88.4233 4.76837e-06L82.3778 13.9318H80.0085L86.054 4.76837e-06H88.4233ZM87.4361 12.1818L89.3679 0.54546H94.1747C95.0459 0.54546 95.7713 0.71402 96.3509 1.05114C96.9304 1.38826 97.3414 1.85985 97.5838 2.46591C97.8262 3.07198 97.8812 3.77463 97.7486 4.57387C97.6198 5.38069 97.33 6.08334 96.8793 6.68182C96.4323 7.28031 95.8565 7.74432 95.152 8.07387C94.4474 8.40341 93.6463 8.56819 92.7486 8.56819H89.7884L90.1577 6.35228H92.6009C93.0289 6.35228 93.3982 6.27841 93.7088 6.13069C94.0232 5.98296 94.2751 5.77652 94.4645 5.51137C94.6539 5.24622 94.7789 4.93372 94.8395 4.57387C94.8963 4.21402 94.8736 3.90341 94.7713 3.64205C94.669 3.3769 94.4853 3.17235 94.2202 3.02841C93.9588 2.88448 93.6179 2.81251 93.1974 2.81251H91.8111L90.2486 12.1818H87.4361ZM109.778 6.54546C109.566 7.79925 109.15 8.85796 108.528 9.7216C107.911 10.5814 107.159 11.233 106.273 11.6761C105.39 12.1193 104.441 12.3409 103.426 12.3409C102.354 12.3409 101.426 12.1023 100.642 11.625C99.858 11.1477 99.2879 10.4527 98.9318 9.53978C98.5795 8.6269 98.5114 7.51894 98.7273 6.21591C98.9318 4.96213 99.3428 3.90152 99.9602 3.0341C100.581 2.16667 101.337 1.50947 102.227 1.0625C103.121 0.611747 104.08 0.386369 105.102 0.386369C106.167 0.386369 107.089 0.626899 107.869 1.10796C108.653 1.58902 109.222 2.28788 109.574 3.20455C109.926 4.12122 109.994 5.23485 109.778 6.54546ZM106.966 6.21591C107.083 5.48485 107.083 4.86932 106.966 4.36932C106.852 3.86932 106.629 3.49243 106.295 3.23864C105.962 2.98107 105.528 2.85228 104.994 2.85228C104.403 2.85228 103.869 2.99811 103.392 3.28978C102.919 3.57766 102.523 3.99811 102.205 4.55114C101.886 5.10038 101.665 5.76516 101.54 6.54546C101.411 7.2841 101.407 7.89963 101.528 8.39205C101.653 8.88448 101.886 9.25569 102.227 9.50569C102.568 9.7519 103.002 9.87501 103.528 9.87501C104.116 9.87501 104.644 9.73296 105.114 9.44887C105.583 9.16478 105.975 8.75001 106.29 8.20455C106.608 7.6591 106.833 6.99622 106.966 6.21591ZM110.483 12.1818L112.415 0.54546H117.222C118.093 0.54546 118.82 0.702657 119.403 1.01705C119.987 1.32766 120.402 1.77463 120.648 2.35796C120.894 2.93751 120.951 3.62501 120.818 4.42046C120.689 5.22349 120.402 5.9072 119.955 6.4716C119.511 7.0322 118.939 7.46023 118.239 7.75569C117.542 8.05114 116.75 8.19887 115.864 8.19887H112.824L113.199 5.98296H115.716C116.136 5.98296 116.5 5.92804 116.807 5.81819C117.114 5.70455 117.358 5.5341 117.54 5.30682C117.725 5.07576 117.848 4.78031 117.909 4.42046C117.966 4.06061 117.939 3.76326 117.83 3.52841C117.723 3.28978 117.536 3.11175 117.267 2.99432C117.002 2.87311 116.661 2.81251 116.244 2.81251H114.858L113.295 12.1818H110.483ZM117.915 6.86364L119.932 12.1818H116.864L114.909 6.86364H117.915ZM122.366 2.82955L122.753 0.54546H132.588L132.202 2.82955H128.673L127.128 12.1818H124.355L125.901 2.82955H122.366ZM132.03 12.1818L133.962 0.54546H141.905L141.518 2.82955H136.388L136.001 5.21591H140.626L140.24 7.50569H135.615L134.842 12.1818H132.03ZM153.31 6.54546C153.098 7.79925 152.681 8.85796 152.06 9.7216C151.442 10.5814 150.69 11.233 149.804 11.6761C148.921 12.1193 147.973 12.3409 146.957 12.3409C145.885 12.3409 144.957 12.1023 144.173 11.625C143.389 11.1477 142.819 10.4527 142.463 9.53978C142.111 8.6269 142.043 7.51894 142.259 6.21591C142.463 4.96213 142.874 3.90152 143.491 3.0341C144.113 2.16667 144.868 1.50947 145.759 1.0625C146.652 0.611747 147.611 0.386369 148.634 0.386369C149.698 0.386369 150.62 0.626899 151.401 1.10796C152.185 1.58902 152.753 2.28788 153.105 3.20455C153.457 4.12122 153.526 5.23485 153.31 6.54546ZM150.497 6.21591C150.615 5.48485 150.615 4.86932 150.497 4.36932C150.384 3.86932 150.16 3.49243 149.827 3.23864C149.493 2.98107 149.06 2.85228 148.526 2.85228C147.935 2.85228 147.401 2.99811 146.923 3.28978C146.45 3.57766 146.054 3.99811 145.736 4.55114C145.418 5.10038 145.196 5.76516 145.071 6.54546C144.942 7.2841 144.938 7.89963 145.06 8.39205C145.185 8.88448 145.418 9.25569 145.759 9.50569C146.099 9.7519 146.533 9.87501 147.06 9.87501C147.647 9.87501 148.175 9.73296 148.645 9.44887C149.115 9.16478 149.507 8.75001 149.821 8.20455C150.139 7.6591 150.365 6.99622 150.497 6.21591ZM154.014 12.1818L155.946 0.54546H158.759L157.213 9.89773H162.054L161.668 12.1818H154.014ZM167.868 0.54546L165.936 12.1818H163.124L165.055 0.54546H167.868ZM179.622 6.54546C179.41 7.79925 178.993 8.85796 178.372 9.7216C177.755 10.5814 177.003 11.233 176.116 11.6761C175.234 12.1193 174.285 12.3409 173.27 12.3409C172.198 12.3409 171.27 12.1023 170.486 11.625C169.702 11.1477 169.132 10.4527 168.776 9.53978C168.423 8.6269 168.355 7.51894 168.571 6.21591C168.776 4.96213 169.187 3.90152 169.804 3.0341C170.425 2.16667 171.181 1.50947 172.071 1.0625C172.965 0.611747 173.923 0.386369 174.946 0.386369C176.01 0.386369 176.933 0.626899 177.713 1.10796C178.497 1.58902 179.065 2.28788 179.418 3.20455C179.77 4.12122 179.838 5.23485 179.622 6.54546ZM176.81 6.21591C176.927 5.48485 176.927 4.86932 176.81 4.36932C176.696 3.86932 176.473 3.49243 176.139 3.23864C175.806 2.98107 175.372 2.85228 174.838 2.85228C174.247 2.85228 173.713 2.99811 173.236 3.28978C172.762 3.57766 172.366 3.99811 172.048 4.55114C171.73 5.10038 171.509 5.76516 171.384 6.54546C171.255 7.2841 171.251 7.89963 171.372 8.39205C171.497 8.88448 171.73 9.25569 172.071 9.50569C172.412 9.7519 172.846 9.87501 173.372 9.87501C173.959 9.87501 174.488 9.73296 174.957 9.44887C175.427 9.16478 175.819 8.75001 176.134 8.20455C176.452 7.6591 176.677 6.99622 176.81 6.21591Z" fill="white"/>
</svg>
