<svg width="82" height="12" viewBox="0 0 82 12" fill="none" xmlns="http://www.w3.org/2000/svg">
<path d="M2.22251e-05 11.0582V0.149152H3.88852C4.73724 0.149152 5.44036 0.303626 5.99789 0.612575C6.55542 0.921523 6.97268 1.34411 7.24967 1.88033C7.52666 2.413 7.66515 3.01314 7.66515 3.68076C7.66515 4.35192 7.52488 4.95561 7.24434 5.49184C6.96735 6.02451 6.54832 6.44709 5.98724 6.75959C5.42971 7.06854 4.72836 7.22302 3.88319 7.22302H1.20918V5.82742H3.73404C4.27026 5.82742 4.70528 5.73509 5.03909 5.55043C5.37289 5.36222 5.61792 5.10654 5.77417 4.78338C5.93042 4.46023 6.00854 4.09269 6.00854 3.68076C6.00854 3.26883 5.93042 2.90306 5.77417 2.58346C5.61792 2.26385 5.37112 2.0135 5.03376 1.83239C4.69995 1.65128 4.25961 1.56073 3.71274 1.56073H1.64597V11.0582H2.22251e-05ZM19.071 5.6037C19.071 6.76847 18.8579 7.76989 18.4318 8.60796C18.0056 9.44248 17.4215 10.0852 16.6793 10.5362C15.9406 10.9837 15.1008 11.2074 14.1597 11.2074C13.2151 11.2074 12.3717 10.9837 11.6295 10.5362C10.8909 10.0852 10.3085 9.4407 9.88239 8.60263C9.45625 7.76456 9.24319 6.76492 9.24319 5.6037C9.24319 4.43892 9.45625 3.43928 9.88239 2.60476C10.3085 1.76669 10.8909 1.12394 11.6295 0.676495C12.3717 0.225501 13.2151 3.75509e-06 14.1597 3.75509e-06C15.1008 3.75509e-06 15.9406 0.225501 16.6793 0.676495C17.4215 1.12394 18.0056 1.76669 18.4318 2.60476C18.8579 3.43928 19.071 4.43892 19.071 5.6037ZM17.441 5.6037C17.441 4.71591 17.2972 3.9684 17.0095 3.36115C16.7254 2.75036 16.3348 2.28871 15.8376 1.97621C15.344 1.66016 14.7847 1.50213 14.1597 1.50213C13.5312 1.50213 12.9701 1.66016 12.4765 1.97621C11.9829 2.28871 11.5923 2.75036 11.3046 3.36115C11.0205 3.9684 10.8785 4.71591 10.8785 5.6037C10.8785 6.49148 11.0205 7.24077 11.3046 7.85157C11.5923 8.45881 11.9829 8.92046 12.4765 9.23651C12.9701 9.54901 13.5312 9.70526 14.1597 9.70526C14.7847 9.70526 15.344 9.54901 15.8376 9.23651C16.3348 8.92046 16.7254 8.45881 17.0095 7.85157C17.2972 7.24077 17.441 6.49148 17.441 5.6037ZM21.1231 11.0582V0.149152H25.0116C25.8567 0.149152 26.5581 0.294748 27.1156 0.585941C27.6767 0.877134 28.0957 1.28019 28.3727 1.7951C28.6497 2.30647 28.7882 2.89773 28.7882 3.5689C28.7882 4.23651 28.6479 4.82422 28.3674 5.33204C28.0904 5.8363 27.6714 6.2287 27.1103 6.50924C26.5528 6.78978 25.8514 6.93005 25.0062 6.93005H22.0606V5.51314H24.8571C25.3898 5.51314 25.823 5.43679 26.1568 5.28409C26.4942 5.1314 26.741 4.90945 26.8972 4.61826C27.0535 4.32706 27.1316 3.97728 27.1316 3.5689C27.1316 3.15696 27.0517 2.80007 26.8919 2.49823C26.7356 2.19638 26.4888 1.96556 26.1515 1.80576C25.8177 1.6424 25.3791 1.56073 24.8358 1.56073H22.769V11.0582H21.1231ZM26.5084 6.13637L29.2037 11.0582H27.3287L24.6866 6.13637H26.5084ZM30.253 1.56606V0.149152H38.6959V1.56606H35.2921V11.0582H33.6515V1.56606H30.253ZM40.5615 11.0582V0.149152H47.3265V1.56606H42.2075V4.88992H46.8417V6.3015H42.2075V11.0582H40.5615ZM58.8268 5.6037C58.8268 6.76847 58.6137 7.76989 58.1876 8.60796C57.7615 9.44248 57.1773 10.0852 56.4351 10.5362C55.6965 10.9837 54.8566 11.2074 53.9156 11.2074C52.971 11.2074 52.1276 10.9837 51.3854 10.5362C50.6468 10.0852 50.0644 9.4407 49.6383 8.60263C49.2121 7.76456 48.999 6.76492 48.999 5.6037C48.999 4.43892 49.2121 3.43928 49.6383 2.60476C50.0644 1.76669 50.6468 1.12394 51.3854 0.676495C52.1276 0.225501 52.971 3.75509e-06 53.9156 3.75509e-06C54.8566 3.75509e-06 55.6965 0.225501 56.4351 0.676495C57.1773 1.12394 57.7615 1.76669 58.1876 2.60476C58.6137 3.43928 58.8268 4.43892 58.8268 5.6037ZM57.1968 5.6037C57.1968 4.71591 57.053 3.9684 56.7654 3.36115C56.4813 2.75036 56.0907 2.28871 55.5935 1.97621C55.0999 1.66016 54.5406 1.50213 53.9156 1.50213C53.287 1.50213 52.726 1.66016 52.2324 1.97621C51.7387 2.28871 51.3481 2.75036 51.0605 3.36115C50.7764 3.9684 50.6343 4.71591 50.6343 5.6037C50.6343 6.49148 50.7764 7.24077 51.0605 7.85157C51.3481 8.45881 51.7387 8.92046 52.2324 9.23651C52.726 9.54901 53.287 9.70526 53.9156 9.70526C54.5406 9.70526 55.0999 9.54901 55.5935 9.23651C56.0907 8.92046 56.4813 8.45881 56.7654 7.85157C57.053 7.24077 57.1968 6.49148 57.1968 5.6037ZM60.799 11.0582V0.876424H62.3352V9.7358H66.9489V11.0582H60.799ZM70.2376 0.876424V11.0582H68.7014V0.876424H70.2376ZM81.3193 5.96733C81.3193 7.05445 81.1204 7.98911 80.7227 8.77131C80.325 9.55019 79.7797 10.1501 79.087 10.571C78.3976 10.9886 77.6138 11.1974 76.7355 11.1974C75.8538 11.1974 75.0667 10.9886 74.374 10.571C73.6846 10.1501 73.141 9.54854 72.7433 8.76634C72.3455 7.98414 72.1467 7.05114 72.1467 5.96733C72.1467 4.88021 72.3455 3.94721 72.7433 3.16833C73.141 2.38613 73.6846 1.78623 74.374 1.36861C75.0667 0.947684 75.8538 0.73722 76.7355 0.73722C77.6138 0.73722 78.3976 0.947684 79.087 1.36861C79.7797 1.78623 80.325 2.38613 80.7227 3.16833C81.1204 3.94721 81.3193 4.88021 81.3193 5.96733ZM79.798 5.96733C79.798 5.13874 79.6637 4.44106 79.3953 3.87429C79.1301 3.30422 78.7655 2.87335 78.3015 2.58168C77.8408 2.2867 77.3188 2.13921 76.7355 2.13921C76.1488 2.13921 75.6251 2.2867 75.1644 2.58168C74.7037 2.87335 74.3392 3.30422 74.0707 3.87429C73.8055 4.44106 73.673 5.13874 73.673 5.96733C73.673 6.79593 73.8055 7.49527 74.0707 8.06534C74.3392 8.63211 74.7037 9.06298 75.1644 9.35796C75.6251 9.64963 76.1488 9.79546 76.7355 9.79546C77.3188 9.79546 77.8408 9.64963 78.3015 9.35796C78.7655 9.06298 79.1301 8.63211 79.3953 8.06534C79.6637 7.49527 79.798 6.79593 79.798 5.96733Z" fill="white"/>
</svg>
<svg width="52" height="12" viewBox="0 0 52 12" fill="none" xmlns="http://www.w3.org/2000/svg">
<path d="M1.74716 11.0582H5.55627e-06L3.92579 0.149152H5.82742L9.7532 11.0582H8.00604L4.92188 2.13069H4.83665L1.74716 11.0582ZM2.04013 6.78623H7.70775V8.17117H2.04013V6.78623ZM11.3286 11.0582V0.149152H15.3236C16.0978 0.149152 16.7387 0.276992 17.2465 0.532674C17.7544 0.784805 18.1343 1.12749 18.3865 1.56073C18.6386 1.99042 18.7647 2.47515 18.7647 3.01492C18.7647 3.46946 18.6812 3.85299 18.5143 4.16549C18.3474 4.47444 18.1237 4.72302 17.8431 4.91123C17.5661 5.09588 17.2607 5.23083 16.9269 5.31606V5.42259C17.2892 5.44034 17.6425 5.55753 17.987 5.77415C18.335 5.98722 18.6226 6.29084 18.8499 6.68502C19.0772 7.07919 19.1908 7.5586 19.1908 8.12323C19.1908 8.68076 19.0594 9.18147 18.7966 9.62536C18.5374 10.0657 18.1361 10.4155 17.5928 10.6747C17.0495 10.9304 16.3552 11.0582 15.51 11.0582H11.3286ZM12.9745 9.64667H15.3502C16.1386 9.64667 16.7032 9.49397 17.0441 9.18857C17.385 8.88317 17.5555 8.50142 17.5555 8.04333C17.5555 7.69887 17.4685 7.38282 17.2945 7.09517C17.1205 6.80753 16.8719 6.57848 16.5487 6.40803C16.2291 6.23758 15.8492 6.15235 15.4088 6.15235H12.9745V9.64667ZM12.9745 4.86861H15.1798C15.5491 4.86861 15.8811 4.79759 16.1759 4.65554C16.4742 4.5135 16.7103 4.31463 16.8843 4.05895C17.0619 3.79972 17.1507 3.49432 17.1507 3.14276C17.1507 2.69177 16.9926 2.31357 16.6766 2.00817C16.3605 1.70277 15.8758 1.55007 15.2224 1.55007H12.9745V4.86861ZM30.6192 5.6037C30.6192 6.76847 30.4062 7.76989 29.98 8.60796C29.5539 9.44248 28.9697 10.0852 28.2275 10.5362C27.4889 10.9837 26.6491 11.2074 25.708 11.2074C24.7634 11.2074 23.92 10.9837 23.1778 10.5362C22.4392 10.0852 21.8568 9.4407 21.4307 8.60263C21.0045 7.76456 20.7915 6.76492 20.7915 5.6037C20.7915 4.43892 21.0045 3.43928 21.4307 2.60476C21.8568 1.76669 22.4392 1.12394 23.1778 0.676495C23.92 0.225501 24.7634 3.75509e-06 25.708 3.75509e-06C26.6491 3.75509e-06 27.4889 0.225501 28.2275 0.676495C28.9697 1.12394 29.5539 1.76669 29.98 2.60476C30.4062 3.43928 30.6192 4.43892 30.6192 5.6037ZM28.9893 5.6037C28.9893 4.71591 28.8454 3.9684 28.5578 3.36115C28.2737 2.75036 27.8831 2.28871 27.3859 1.97621C26.8923 1.66016 26.333 1.50213 25.708 1.50213C25.0795 1.50213 24.5184 1.66016 24.0248 1.97621C23.5312 2.28871 23.1405 2.75036 22.8529 3.36115C22.5688 3.9684 22.4268 4.71591 22.4268 5.6037C22.4268 6.49148 22.5688 7.24077 22.8529 7.85157C23.1405 8.45881 23.5312 8.92046 24.0248 9.23651C24.5184 9.54901 25.0795 9.70526 25.708 9.70526C26.333 9.70526 26.8923 9.54901 27.3859 9.23651C27.8831 8.92046 28.2737 8.45881 28.5578 7.85157C28.8454 7.24077 28.9893 6.49148 28.9893 5.6037ZM39.6866 0.149152H41.3379V7.32422C41.3379 8.08772 41.1586 8.76421 40.7999 9.3537C40.4412 9.93963 39.937 10.4013 39.2871 10.7386C38.6373 11.0724 37.8755 11.2394 37.002 11.2394C36.1319 11.2394 35.372 11.0724 34.7221 10.7386C34.0723 10.4013 33.568 9.93963 33.2093 9.3537C32.8507 8.76421 32.6713 8.08772 32.6713 7.32422V0.149152H34.3173V7.19106C34.3173 7.68466 34.4256 8.12323 34.6422 8.50675C34.8624 8.89027 35.1731 9.19212 35.5744 9.41229C35.9757 9.62891 36.4515 9.73722 37.002 9.73722C37.5559 9.73722 38.0336 9.62891 38.4348 9.41229C38.8397 9.19212 39.1486 8.89027 39.3617 8.50675C39.5783 8.12323 39.6866 7.68466 39.6866 7.19106V0.149152ZM43.1929 1.56606V0.149152H51.6357V1.56606H48.232V11.0582H46.5914V1.56606H43.1929Z" fill="white"/>
</svg>
<svg width="72" height="12" viewBox="0 0 72 12" fill="none" xmlns="http://www.w3.org/2000/svg">
<path d="M9.41231 3.69674H7.75038C7.68646 3.34162 7.56749 3.02912 7.39349 2.75924C7.21948 2.48935 7.00641 2.2603 6.75428 2.07209C6.50215 1.88388 6.21984 1.74184 5.90734 1.64596C5.59839 1.55007 5.26991 1.50213 4.9219 1.50213C4.29335 1.50213 3.73049 1.66016 3.23333 1.97621C2.73972 2.29226 2.3491 2.75569 2.06146 3.36648C1.77737 3.97728 1.63532 4.72302 1.63532 5.6037C1.63532 6.49148 1.77737 7.24077 2.06146 7.85157C2.3491 8.46236 2.7415 8.92401 3.23866 9.23651C3.73582 9.54901 4.29512 9.70526 4.91657 9.70526C5.26103 9.70526 5.58774 9.6591 5.89668 9.56677C6.20918 9.47088 6.4915 9.33061 6.74363 9.14596C6.99576 8.9613 7.20883 8.7358 7.38283 8.46946C7.56039 8.19958 7.68291 7.89063 7.75038 7.54262L9.41231 7.54794C9.32353 8.08417 9.1513 8.57777 8.89562 9.02877C8.64349 9.47621 8.31856 9.86329 7.92083 10.19C7.52666 10.5131 7.07566 10.7635 6.56785 10.9411C6.06004 11.1186 5.50606 11.2074 4.90592 11.2074C3.96131 11.2074 3.1197 10.9837 2.38106 10.5362C1.64242 10.0852 1.06004 9.4407 0.6339 8.60263C0.211315 7.76456 2.22251e-05 6.76492 2.22251e-05 5.6037C2.22251e-05 4.43892 0.21309 3.43928 0.639227 2.60476C1.06536 1.76669 1.64775 1.12394 2.38639 0.676495C3.12502 0.225501 3.96487 3.75509e-06 4.90592 3.75509e-06C5.48475 3.75509e-06 6.02453 0.0834556 6.52524 0.250359C7.0295 0.413711 7.48227 0.655188 7.88354 0.974791C8.28482 1.29084 8.61685 1.67792 8.87964 2.13601C9.14242 2.59056 9.31998 3.1108 9.41231 3.69674ZM20.8581 5.6037C20.8581 6.76847 20.645 7.76989 20.2189 8.60796C19.7927 9.44248 19.2086 10.0852 18.4664 10.5362C17.7277 10.9837 16.8879 11.2074 15.9468 11.2074C15.0022 11.2074 14.1588 10.9837 13.4167 10.5362C12.678 10.0852 12.0956 9.4407 11.6695 8.60263C11.2434 7.76456 11.0303 6.76492 11.0303 5.6037C11.0303 4.43892 11.2434 3.43928 11.6695 2.60476C12.0956 1.76669 12.678 1.12394 13.4167 0.676495C14.1588 0.225501 15.0022 3.75509e-06 15.9468 3.75509e-06C16.8879 3.75509e-06 17.7277 0.225501 18.4664 0.676495C19.2086 1.12394 19.7927 1.76669 20.2189 2.60476C20.645 3.43928 20.8581 4.43892 20.8581 5.6037ZM19.2281 5.6037C19.2281 4.71591 19.0843 3.9684 18.7966 3.36115C18.5125 2.75036 18.1219 2.28871 17.6248 1.97621C17.1311 1.66016 16.5718 1.50213 15.9468 1.50213C15.3183 1.50213 14.7572 1.66016 14.2636 1.97621C13.77 2.28871 13.3794 2.75036 13.0917 3.36115C12.8076 3.9684 12.6656 4.71591 12.6656 5.6037C12.6656 6.49148 12.8076 7.24077 13.0917 7.85157C13.3794 8.45881 13.77 8.92046 14.2636 9.23651C14.7572 9.54901 15.3183 9.70526 15.9468 9.70526C16.5718 9.70526 17.1311 9.54901 17.6248 9.23651C18.1219 8.92046 18.5125 8.45881 18.7966 7.85157C19.0843 7.24077 19.2281 6.49148 19.2281 5.6037ZM31.7152 0.149152V11.0582H30.2024L24.6573 3.05753H24.5561V11.0582H22.9102V0.149152H24.4336L29.984 8.16052H30.0852V0.149152H31.7152ZM33.5782 1.56606V0.149152H42.0211V1.56606H38.6173V11.0582H36.9767V1.56606H33.5782ZM43.5192 11.0582H41.772L45.6978 0.149152H47.5995L51.5252 11.0582H49.7781L46.6939 2.13069H46.6087L43.5192 11.0582ZM43.8122 6.78623H49.4798V8.17117H43.8122V6.78623ZM61.6486 3.69674H59.9867C59.9228 3.34162 59.8038 3.02912 59.6298 2.75924C59.4558 2.48935 59.2427 2.2603 58.9906 2.07209C58.7385 1.88388 58.4562 1.74184 58.1437 1.64596C57.8347 1.55007 57.5062 1.50213 57.1582 1.50213C56.5297 1.50213 55.9668 1.66016 55.4697 1.97621C54.9761 2.29226 54.5854 2.75569 54.2978 3.36648C54.0137 3.97728 53.8716 4.72302 53.8716 5.6037C53.8716 6.49148 54.0137 7.24077 54.2978 7.85157C54.5854 8.46236 54.9778 8.92401 55.475 9.23651C55.9721 9.54901 56.5315 9.70526 57.1529 9.70526C57.4974 9.70526 57.8241 9.6591 58.133 9.56677C58.4455 9.47088 58.7278 9.33061 58.98 9.14596C59.2321 8.9613 59.4452 8.7358 59.6192 8.46946C59.7967 8.19958 59.9192 7.89063 59.9867 7.54262L61.6486 7.54794C61.5599 8.08417 61.3876 8.57777 61.1319 9.02877C60.8798 9.47621 60.5549 9.86329 60.1572 10.19C59.763 10.5131 59.312 10.7635 58.8042 10.9411C58.2964 11.1186 57.7424 11.2074 57.1422 11.2074C56.1976 11.2074 55.356 10.9837 54.6174 10.5362C53.8788 10.0852 53.2964 9.4407 52.8702 8.60263C52.4476 7.76456 52.2364 6.76492 52.2364 5.6037C52.2364 4.43892 52.4494 3.43928 52.8756 2.60476C53.3017 1.76669 53.8841 1.12394 54.6227 0.676495C55.3614 0.225501 56.2012 3.75509e-06 57.1422 3.75509e-06C57.7211 3.75509e-06 58.2609 0.0834556 58.7616 0.250359C59.2658 0.413711 59.7186 0.655188 60.1199 0.974791C60.5212 1.29084 60.8532 1.67792 61.116 2.13601C61.3788 2.59056 61.5563 3.1108 61.6486 3.69674ZM63.0802 1.56606V0.149152H71.523V1.56606H68.1193V11.0582H66.4786V1.56606H63.0802Z" fill="white"/>
</svg>